<svg aria-hidden="true" style="position: absolute; width: 0; height: 0; overflow: hidden;" version="1.1" xmlns="http://www.w3.org/2000/svg" xmlns:xlink="http://www.w3.org/1999/xlink">
<defs>
<symbol id="icon-qr-fb" viewBox="0 0 32 32">
<path d="M0.821 0.821h0.821v0.821h-0.821v-0.821zM1.641 0.821h0.821v0.821h-0.821v-0.821zM2.462 0.821h0.821v0.821h-0.821v-0.821zM3.282 0.821h0.82v0.821h-0.821v-0.821zM4.103 0.821h0.821v0.821h-0.821v-0.821zM4.923 0.821h0.821v0.821h-0.821v-0.821zM5.744 0.821h0.821v0.821h-0.821v-0.821zM7.385 0.821h0.82v0.821h-0.821v-0.821zM8.205 0.821h0.821v0.821h-0.82v-0.821zM12.308 0.821h0.82v0.821h-0.82v-0.821zM13.949 0.821h0.821v0.821h-0.82v-0.821zM15.59 0.821h0.821v0.821h-0.82v-0.821zM16.41 0.821h0.82v0.821h-0.82v-0.821zM18.051 0.821h0.82v0.821h-0.82v-0.821zM20.513 0.821h0.82v0.821h-0.82v-0.821zM21.333 0.821h0.82v0.821h-0.82v-0.821zM22.154 0.821h0.82v0.821h-0.82v-0.821zM22.974 0.821h0.82v0.821h-0.82v-0.821zM25.436 0.821h0.82v0.821h-0.82v-0.821zM26.256 0.821h0.82v0.821h-0.82v-0.821zM27.077 0.821h0.82v0.821h-0.82v-0.821zM27.897 0.821h0.82v0.821h-0.82v-0.821zM28.718 0.821h0.82v0.821h-0.82v-0.821zM29.538 0.821h0.82v0.821h-0.82v-0.821zM30.359 0.821h0.82v0.821h-0.82v-0.821zM0.821 1.641h0.821v0.821h-0.821v-0.821zM5.744 1.641h0.821v0.821h-0.821v-0.821zM9.026 1.641h0.82v0.821h-0.82v-0.821zM9.846 1.641h0.82v0.821h-0.82v-0.821zM12.308 1.641h0.82v0.821h-0.82v-0.821zM15.59 1.641h0.821v0.821h-0.82v-0.821zM17.231 1.641h0.82v0.821h-0.82v-0.821zM19.692 1.641h0.82v0.821h-0.82v-0.821zM20.513 1.641h0.82v0.821h-0.82v-0.821zM21.333 1.641h0.82v0.821h-0.82v-0.821zM22.154 1.641h0.82v0.821h-0.82v-0.821zM22.974 1.641h0.82v0.821h-0.82v-0.821zM25.436 1.641h0.82v0.821h-0.82v-0.821zM30.359 1.641h0.82v0.821h-0.82v-0.821zM0.821 2.462h0.821v0.821h-0.821v-0.821zM2.462 2.462h0.821v0.821h-0.821v-0.821zM3.282 2.462h0.82v0.821h-0.821v-0.821zM4.103 2.462h0.821v0.821h-0.821v-0.821zM5.744 2.462h0.821v0.821h-0.821v-0.821zM7.385 2.462h0.82v0.821h-0.821v-0.821zM8.205 2.462h0.821v0.821h-0.82v-0.821zM9.026 2.462h0.82v0.821h-0.82v-0.821zM9.846 2.462h0.82v0.821h-0.82v-0.821zM10.667 2.462h0.821v0.821h-0.82v-0.821zM11.487 2.462h0.821v0.821h-0.82v-0.821zM13.128 2.462h0.821v0.821h-0.82v-0.821zM14.769 2.462h0.82v0.821h-0.82v-0.821zM18.872 2.462h0.82v0.821h-0.82v-0.821zM19.692 2.462h0.82v0.821h-0.82v-0.821zM20.513 2.462h0.82v0.821h-0.82v-0.821zM22.154 2.462h0.82v0.821h-0.82v-0.821zM22.974 2.462h0.82v0.821h-0.82v-0.821zM23.795 2.462h0.82v0.821h-0.82v-0.821zM25.436 2.462h0.82v0.821h-0.82v-0.821zM27.077 2.462h0.82v0.821h-0.82v-0.821zM27.897 2.462h0.82v0.821h-0.82v-0.821zM28.718 2.462h0.82v0.821h-0.82v-0.821zM30.359 2.462h0.82v0.821h-0.82v-0.821zM0.821 3.282h0.821v0.82h-0.821v-0.821zM2.462 3.282h0.821v0.82h-0.821v-0.821zM3.282 3.282h0.82v0.82h-0.821v-0.821zM4.103 3.282h0.821v0.82h-0.821v-0.821zM5.744 3.282h0.821v0.82h-0.821v-0.821zM7.385 3.282h0.82v0.82h-0.821v-0.821zM8.205 3.282h0.821v0.82h-0.82v-0.821zM9.026 3.282h0.82v0.82h-0.82v-0.821zM11.487 3.282h0.821v0.82h-0.82v-0.821zM13.128 3.282h0.821v0.82h-0.82v-0.821zM13.949 3.282h0.821v0.82h-0.82v-0.821zM15.59 3.282h0.821v0.82h-0.82v-0.821zM16.41 3.282h0.82v0.82h-0.82v-0.821zM17.231 3.282h0.82v0.82h-0.82v-0.821zM18.872 3.282h0.82v0.82h-0.82v-0.821zM19.692 3.282h0.82v0.82h-0.82v-0.821zM20.513 3.282h0.82v0.82h-0.82v-0.821zM22.154 3.282h0.82v0.82h-0.82v-0.821zM22.974 3.282h0.82v0.82h-0.82v-0.821zM25.436 3.282h0.82v0.82h-0.82v-0.821zM27.077 3.282h0.82v0.82h-0.82v-0.821zM27.897 3.282h0.82v0.82h-0.82v-0.821zM28.718 3.282h0.82v0.82h-0.82v-0.821zM30.359 3.282h0.82v0.82h-0.82v-0.821zM0.821 4.103h0.821v0.821h-0.821v-0.821zM2.462 4.103h0.821v0.821h-0.821v-0.821zM3.282 4.103h0.82v0.821h-0.821v-0.821zM4.103 4.103h0.821v0.821h-0.821v-0.821zM5.744 4.103h0.821v0.821h-0.821v-0.821zM9.846 4.103h0.82v0.821h-0.82v-0.821zM14.769 4.103h0.82v0.821h-0.82v-0.821zM16.41 4.103h0.82v0.821h-0.82v-0.821zM19.692 4.103h0.82v0.821h-0.82v-0.821zM20.513 4.103h0.82v0.821h-0.82v-0.821zM21.333 4.103h0.82v0.821h-0.82v-0.821zM22.154 4.103h0.82v0.821h-0.82v-0.821zM22.974 4.103h0.82v0.821h-0.82v-0.821zM25.436 4.103h0.82v0.821h-0.82v-0.821zM27.077 4.103h0.82v0.821h-0.82v-0.821zM27.897 4.103h0.82v0.821h-0.82v-0.821zM28.718 4.103h0.82v0.821h-0.82v-0.821zM30.359 4.103h0.82v0.821h-0.82v-0.821zM0.821 4.923h0.821v0.821h-0.821v-0.821zM5.744 4.923h0.821v0.821h-0.821v-0.821zM7.385 4.923h0.82v0.821h-0.821v-0.821zM8.205 4.923h0.821v0.821h-0.82v-0.821zM13.949 4.923h0.821v0.821h-0.82v-0.821zM15.59 4.923h0.821v0.821h-0.82v-0.821zM17.231 4.923h0.82v0.821h-0.82v-0.821zM20.513 4.923h0.82v0.821h-0.82v-0.821zM21.333 4.923h0.82v0.821h-0.82v-0.821zM22.974 4.923h0.82v0.821h-0.82v-0.821zM23.795 4.923h0.82v0.821h-0.82v-0.821zM25.436 4.923h0.82v0.821h-0.82v-0.821zM30.359 4.923h0.82v0.821h-0.82v-0.821zM0.821 5.744h0.821v0.821h-0.821v-0.821zM1.641 5.744h0.821v0.821h-0.821v-0.821zM2.462 5.744h0.821v0.821h-0.821v-0.821zM3.282 5.744h0.82v0.821h-0.821v-0.821zM4.103 5.744h0.821v0.821h-0.821v-0.821zM4.923 5.744h0.821v0.821h-0.821v-0.821zM5.744 5.744h0.821v0.821h-0.821v-0.821zM7.385 5.744h0.82v0.821h-0.821v-0.821zM9.026 5.744h0.82v0.821h-0.82v-0.821zM10.667 5.744h0.821v0.821h-0.82v-0.821zM12.308 5.744h0.82v0.821h-0.82v-0.821zM13.949 5.744h0.821v0.821h-0.82v-0.821zM15.59 5.744h0.821v0.821h-0.82v-0.821zM17.231 5.744h0.82v0.821h-0.82v-0.821zM18.872 5.744h0.82v0.821h-0.82v-0.821zM20.513 5.744h0.82v0.821h-0.82v-0.821zM22.154 5.744h0.82v0.821h-0.82v-0.821zM23.795 5.744h0.82v0.821h-0.82v-0.821zM25.436 5.744h0.82v0.821h-0.82v-0.821zM26.256 5.744h0.82v0.821h-0.82v-0.821zM27.077 5.744h0.82v0.821h-0.82v-0.821zM27.897 5.744h0.82v0.821h-0.82v-0.821zM28.718 5.744h0.82v0.821h-0.82v-0.821zM29.538 5.744h0.82v0.821h-0.82v-0.821zM30.359 5.744h0.82v0.821h-0.82v-0.821zM7.385 6.564h0.82v0.821h-0.821v-0.821zM8.205 6.564h0.821v0.821h-0.82v-0.821zM9.846 6.564h0.82v0.821h-0.82v-0.821zM11.487 6.564h0.821v0.821h-0.82v-0.821zM12.308 6.564h0.82v0.821h-0.82v-0.821zM13.949 6.564h0.821v0.821h-0.82v-0.821zM15.59 6.564h0.821v0.821h-0.82v-0.821zM16.41 6.564h0.82v0.821h-0.82v-0.821zM18.051 6.564h0.82v0.821h-0.82v-0.821zM18.872 6.564h0.82v0.821h-0.82v-0.821zM19.692 6.564h0.82v0.821h-0.82v-0.821zM22.154 6.564h0.82v0.821h-0.82v-0.821zM1.641 7.385h0.821v0.82h-0.821v-0.821zM3.282 7.385h0.82v0.82h-0.821v-0.821zM4.923 7.385h0.821v0.82h-0.821v-0.821zM5.744 7.385h0.821v0.82h-0.821v-0.821zM6.564 7.385h0.821v0.82h-0.821v-0.821zM7.385 7.385h0.82v0.82h-0.821v-0.821zM8.205 7.385h0.821v0.82h-0.82v-0.821zM9.846 7.385h0.82v0.82h-0.82v-0.821zM10.667 7.385h0.821v0.82h-0.82v-0.821zM13.128 7.385h0.821v0.82h-0.82v-0.821zM14.769 7.385h0.82v0.82h-0.82v-0.821zM15.59 7.385h0.821v0.82h-0.82v-0.821zM18.051 7.385h0.82v0.82h-0.82v-0.821zM19.692 7.385h0.82v0.82h-0.82v-0.821zM21.333 7.385h0.82v0.82h-0.82v-0.821zM22.974 7.385h0.82v0.82h-0.82v-0.821zM24.615 7.385h0.82v0.82h-0.82v-0.821zM25.436 7.385h0.82v0.82h-0.82v-0.821zM26.256 7.385h0.82v0.82h-0.82v-0.821zM27.897 7.385h0.82v0.82h-0.82v-0.821zM28.718 7.385h0.82v0.82h-0.82v-0.821zM30.359 7.385h0.82v0.82h-0.82v-0.821zM0.821 8.205h0.821v0.821h-0.821v-0.82zM1.641 8.205h0.821v0.821h-0.821v-0.82zM2.462 8.205h0.821v0.821h-0.821v-0.82zM7.385 8.205h0.82v0.821h-0.821v-0.82zM9.026 8.205h0.82v0.821h-0.82v-0.82zM9.846 8.205h0.82v0.821h-0.82v-0.82zM10.667 8.205h0.821v0.821h-0.82v-0.82zM12.308 8.205h0.82v0.821h-0.82v-0.82zM13.128 8.205h0.821v0.821h-0.82v-0.82zM14.769 8.205h0.82v0.821h-0.82v-0.82zM17.231 8.205h0.82v0.821h-0.82v-0.82zM18.051 8.205h0.82v0.821h-0.82v-0.82zM20.513 8.205h0.82v0.821h-0.82v-0.82zM22.154 8.205h0.82v0.821h-0.82v-0.82zM25.436 8.205h0.82v0.821h-0.82v-0.82zM26.256 8.205h0.82v0.821h-0.82v-0.82zM27.897 8.205h0.82v0.821h-0.82v-0.82zM28.718 8.205h0.82v0.821h-0.82v-0.82zM29.538 8.205h0.82v0.821h-0.82v-0.82zM30.359 8.205h0.82v0.821h-0.82v-0.82zM0.821 9.026h0.821v0.82h-0.821v-0.82zM1.641 9.026h0.821v0.82h-0.821v-0.82zM3.282 9.026h0.82v0.82h-0.821v-0.82zM5.744 9.026h0.821v0.82h-0.821v-0.82zM6.564 9.026h0.821v0.82h-0.821v-0.82zM8.205 9.026h0.821v0.82h-0.82v-0.82zM11.487 9.026h0.821v0.82h-0.82v-0.82zM12.308 9.026h0.82v0.82h-0.82v-0.82zM16.41 9.026h0.82v0.82h-0.82v-0.82zM20.513 9.026h0.82v0.82h-0.82v-0.82zM23.795 9.026h0.82v0.82h-0.82v-0.82zM25.436 9.026h0.82v0.82h-0.82v-0.82zM27.077 9.026h0.82v0.82h-0.82v-0.82zM27.897 9.026h0.82v0.82h-0.82v-0.82zM29.538 9.026h0.82v0.82h-0.82v-0.82zM30.359 9.026h0.82v0.82h-0.82v-0.82zM1.641 9.846h0.821v0.82h-0.821v-0.82zM3.282 9.846h0.82v0.82h-0.821v-0.82zM4.103 9.846h0.821v0.82h-0.821v-0.82zM4.923 9.846h0.821v0.82h-0.821v-0.82zM7.385 9.846h0.82v0.82h-0.821v-0.82zM8.205 9.846h0.821v0.82h-0.82v-0.82zM9.026 9.846h0.82v0.82h-0.82v-0.82zM9.846 9.846h0.82v0.82h-0.82v-0.82zM11.487 9.846h0.821v0.82h-0.82v-0.82zM12.308 9.846h0.82v0.82h-0.82v-0.82zM13.128 9.846h0.821v0.82h-0.82v-0.82zM16.41 9.846h0.82v0.82h-0.82v-0.82zM18.051 9.846h0.82v0.82h-0.82v-0.82zM21.333 9.846h0.82v0.82h-0.82v-0.82zM22.974 9.846h0.82v0.82h-0.82v-0.82zM26.256 9.846h0.82v0.82h-0.82v-0.82zM27.897 9.846h0.82v0.82h-0.82v-0.82zM29.538 9.846h0.82v0.82h-0.82v-0.82zM0.821 10.667h0.821v0.821h-0.821v-0.82zM1.641 10.667h0.821v0.821h-0.821v-0.82zM3.282 10.667h0.82v0.821h-0.821v-0.82zM5.744 10.667h0.821v0.821h-0.821v-0.82zM6.564 10.667h0.821v0.821h-0.821v-0.82zM7.385 10.667h0.82v0.821h-0.821v-0.82zM9.026 10.667h0.82v0.821h-0.82v-0.82zM9.846 10.667h0.82v0.821h-0.82v-0.82zM10.667 10.667h0.821v0.821h-0.82v-0.82zM12.308 10.667h0.82v0.821h-0.82v-0.82zM16.41 10.667h0.82v0.821h-0.82v-0.82zM17.231 10.667h0.82v0.821h-0.82v-0.82zM18.051 10.667h0.82v0.821h-0.82v-0.82zM18.872 10.667h0.82v0.821h-0.82v-0.82zM20.513 10.667h0.82v0.821h-0.82v-0.82zM21.333 10.667h0.82v0.821h-0.82v-0.82zM24.615 10.667h0.82v0.821h-0.82v-0.82zM25.436 10.667h0.82v0.821h-0.82v-0.82zM26.256 10.667h0.82v0.821h-0.82v-0.82zM27.897 10.667h0.82v0.821h-0.82v-0.82zM4.103 11.487h0.821v0.821h-0.821v-0.82zM6.564 11.487h0.821v0.821h-0.821v-0.82zM9.026 11.487h0.82v0.821h-0.82v-0.82zM12.308 11.487h0.82v0.821h-0.82v-0.82zM13.128 11.487h0.821v0.821h-0.82v-0.82zM14.769 11.487h0.82v0.821h-0.82v-0.82zM15.59 11.487h0.821v0.821h-0.82v-0.82zM21.333 11.487h0.82v0.821h-0.82v-0.82zM22.154 11.487h0.82v0.821h-0.82v-0.82zM23.795 11.487h0.82v0.821h-0.82v-0.82zM25.436 11.487h0.82v0.821h-0.82v-0.82zM26.256 11.487h0.82v0.821h-0.82v-0.82zM27.897 11.487h0.82v0.821h-0.82v-0.82zM29.538 11.487h0.82v0.821h-0.82v-0.82zM30.359 11.487h0.82v0.821h-0.82v-0.82zM0.821 12.308h0.821v0.82h-0.821v-0.82zM3.282 12.308h0.82v0.82h-0.821v-0.82zM4.103 12.308h0.821v0.82h-0.821v-0.82zM5.744 12.308h0.821v0.82h-0.821v-0.82zM6.564 12.308h0.821v0.82h-0.821v-0.82zM8.205 12.308h0.821v0.82h-0.82v-0.82zM9.846 12.308h0.82v0.82h-0.82v-0.82zM11.487 12.308h0.821v0.82h-0.82v-0.82zM12.308 12.308h0.82v0.82h-0.82v-0.82zM14.769 12.308h0.82v0.82h-0.82v-0.82zM15.59 12.308h0.821v0.82h-0.82v-0.82zM16.41 12.308h0.82v0.82h-0.82v-0.82zM17.231 12.308h0.82v0.82h-0.82v-0.82zM18.051 12.308h0.82v0.82h-0.82v-0.82zM19.692 12.308h0.82v0.82h-0.82v-0.82zM21.333 12.308h0.82v0.82h-0.82v-0.82zM22.154 12.308h0.82v0.82h-0.82v-0.82zM23.795 12.308h0.82v0.82h-0.82v-0.82zM27.077 12.308h0.82v0.82h-0.82v-0.82zM28.718 12.308h0.82v0.82h-0.82v-0.82zM30.359 12.308h0.82v0.82h-0.82v-0.82zM0.821 13.128h0.821v0.821h-0.821v-0.82zM2.462 13.128h0.821v0.821h-0.821v-0.82zM3.282 13.128h0.82v0.821h-0.821v-0.82zM4.103 13.128h0.821v0.821h-0.821v-0.82zM6.564 13.128h0.821v0.821h-0.821v-0.82zM8.205 13.128h0.821v0.821h-0.82v-0.82zM10.667 13.128h0.821v0.821h-0.82v-0.82zM11.487 13.128h0.821v0.821h-0.82v-0.82zM12.308 13.128h0.82v0.821h-0.82v-0.82zM14.769 13.128h0.82v0.821h-0.82v-0.82zM15.59 13.128h0.821v0.821h-0.82v-0.82zM17.231 13.128h0.82v0.821h-0.82v-0.82zM20.513 13.128h0.82v0.821h-0.82v-0.82zM21.333 13.128h0.82v0.821h-0.82v-0.82zM22.154 13.128h0.82v0.821h-0.82v-0.82zM22.974 13.128h0.82v0.821h-0.82v-0.82zM25.436 13.128h0.82v0.821h-0.82v-0.82zM27.077 13.128h0.82v0.821h-0.82v-0.82zM30.359 13.128h0.82v0.821h-0.82v-0.82zM1.641 13.949h0.821v0.821h-0.821v-0.82zM2.462 13.949h0.821v0.821h-0.821v-0.82zM3.282 13.949h0.82v0.821h-0.821v-0.82zM4.103 13.949h0.821v0.821h-0.821v-0.82zM5.744 13.949h0.821v0.821h-0.821v-0.82zM6.564 13.949h0.821v0.821h-0.821v-0.82zM7.385 13.949h0.82v0.821h-0.821v-0.82zM9.846 13.949h0.82v0.821h-0.82v-0.82zM13.128 13.949h0.821v0.821h-0.82v-0.82zM14.769 13.949h0.82v0.821h-0.82v-0.82zM15.59 13.949h0.821v0.821h-0.82v-0.82zM17.231 13.949h0.82v0.821h-0.82v-0.82zM18.872 13.949h0.82v0.821h-0.82v-0.82zM20.513 13.949h0.82v0.821h-0.82v-0.82zM24.615 13.949h0.82v0.821h-0.82v-0.82zM25.436 13.949h0.82v0.821h-0.82v-0.82zM26.256 13.949h0.82v0.821h-0.82v-0.82zM27.897 13.949h0.82v0.821h-0.82v-0.82zM28.718 13.949h0.82v0.821h-0.82v-0.82zM30.359 13.949h0.82v0.821h-0.82v-0.82zM0.821 14.769h0.821v0.82h-0.821v-0.82zM1.641 14.769h0.821v0.82h-0.821v-0.82zM2.462 14.769h0.821v0.82h-0.821v-0.82zM8.205 14.769h0.821v0.82h-0.82v-0.82zM9.026 14.769h0.82v0.82h-0.82v-0.82zM9.846 14.769h0.82v0.82h-0.82v-0.82zM10.667 14.769h0.821v0.82h-0.82v-0.82zM13.128 14.769h0.821v0.82h-0.82v-0.82zM13.949 14.769h0.821v0.82h-0.82v-0.82zM15.59 14.769h0.821v0.82h-0.82v-0.82zM16.41 14.769h0.82v0.82h-0.82v-0.82zM18.051 14.769h0.82v0.82h-0.82v-0.82zM20.513 14.769h0.82v0.82h-0.82v-0.82zM22.154 14.769h0.82v0.82h-0.82v-0.82zM23.795 14.769h0.82v0.82h-0.82v-0.82zM25.436 14.769h0.82v0.82h-0.82v-0.82zM27.077 14.769h0.82v0.82h-0.82v-0.82zM30.359 14.769h0.82v0.82h-0.82v-0.82zM0.821 15.59h0.821v0.821h-0.821v-0.82zM4.923 15.59h0.821v0.821h-0.821v-0.82zM5.744 15.59h0.821v0.821h-0.821v-0.82zM6.564 15.59h0.821v0.821h-0.821v-0.82zM7.385 15.59h0.82v0.821h-0.821v-0.82zM9.026 15.59h0.82v0.821h-0.82v-0.82zM9.846 15.59h0.82v0.821h-0.82v-0.82zM12.308 15.59h0.82v0.821h-0.82v-0.82zM13.128 15.59h0.821v0.821h-0.82v-0.82zM14.769 15.59h0.82v0.821h-0.82v-0.82zM16.41 15.59h0.82v0.821h-0.82v-0.82zM18.051 15.59h0.82v0.821h-0.82v-0.82zM19.692 15.59h0.82v0.821h-0.82v-0.82zM20.513 15.59h0.82v0.821h-0.82v-0.82zM22.154 15.59h0.82v0.821h-0.82v-0.82zM23.795 15.59h0.82v0.821h-0.82v-0.82zM25.436 15.59h0.82v0.821h-0.82v-0.82zM26.256 15.59h0.82v0.821h-0.82v-0.82zM27.897 15.59h0.82v0.821h-0.82v-0.82zM28.718 15.59h0.82v0.821h-0.82v-0.82zM29.538 15.59h0.82v0.821h-0.82v-0.82zM30.359 15.59h0.82v0.821h-0.82v-0.82zM0.821 16.41h0.821v0.82h-0.821v-0.82zM6.564 16.41h0.821v0.82h-0.821v-0.82zM8.205 16.41h0.821v0.82h-0.82v-0.82zM11.487 16.41h0.821v0.82h-0.82v-0.82zM12.308 16.41h0.82v0.82h-0.82v-0.82zM13.128 16.41h0.821v0.82h-0.82v-0.82zM13.949 16.41h0.821v0.82h-0.82v-0.82zM14.769 16.41h0.82v0.82h-0.82v-0.82zM18.051 16.41h0.82v0.82h-0.82v-0.82zM18.872 16.41h0.82v0.82h-0.82v-0.82zM20.513 16.41h0.82v0.82h-0.82v-0.82zM22.154 16.41h0.82v0.82h-0.82v-0.82zM24.615 16.41h0.82v0.82h-0.82v-0.82zM26.256 16.41h0.82v0.82h-0.82v-0.82zM27.077 16.41h0.82v0.82h-0.82v-0.82zM28.718 16.41h0.82v0.82h-0.82v-0.82zM30.359 16.41h0.82v0.82h-0.82v-0.82zM0.821 17.231h0.821v0.82h-0.821v-0.82zM2.462 17.231h0.821v0.82h-0.821v-0.82zM4.103 17.231h0.821v0.82h-0.821v-0.82zM4.923 17.231h0.821v0.82h-0.821v-0.82zM5.744 17.231h0.821v0.82h-0.821v-0.82zM8.205 17.231h0.821v0.82h-0.82v-0.82zM9.026 17.231h0.82v0.82h-0.82v-0.82zM9.846 17.231h0.82v0.82h-0.82v-0.82zM11.487 17.231h0.821v0.82h-0.82v-0.82zM12.308 17.231h0.82v0.82h-0.82v-0.82zM13.128 17.231h0.821v0.82h-0.82v-0.82zM15.59 17.231h0.821v0.82h-0.82v-0.82zM18.051 17.231h0.82v0.82h-0.82v-0.82zM21.333 17.231h0.82v0.82h-0.82v-0.82zM22.154 17.231h0.82v0.82h-0.82v-0.82zM22.974 17.231h0.82v0.82h-0.82v-0.82zM23.795 17.231h0.82v0.82h-0.82v-0.82zM25.436 17.231h0.82v0.82h-0.82v-0.82zM26.256 17.231h0.82v0.82h-0.82v-0.82zM27.077 17.231h0.82v0.82h-0.82v-0.82zM30.359 17.231h0.82v0.82h-0.82v-0.82zM1.641 18.051h0.821v0.82h-0.821v-0.82zM4.923 18.051h0.821v0.82h-0.821v-0.82zM9.846 18.051h0.82v0.82h-0.82v-0.82zM10.667 18.051h0.821v0.82h-0.82v-0.82zM11.487 18.051h0.821v0.82h-0.82v-0.82zM13.128 18.051h0.821v0.82h-0.82v-0.82zM13.949 18.051h0.821v0.82h-0.82v-0.82zM21.333 18.051h0.82v0.82h-0.82v-0.82zM24.615 18.051h0.82v0.82h-0.82v-0.82zM25.436 18.051h0.82v0.82h-0.82v-0.82zM28.718 18.051h0.82v0.82h-0.82v-0.82zM30.359 18.051h0.82v0.82h-0.82v-0.82zM3.282 18.872h0.82v0.82h-0.821v-0.82zM4.923 18.872h0.821v0.82h-0.821v-0.82zM5.744 18.872h0.821v0.82h-0.821v-0.82zM7.385 18.872h0.82v0.82h-0.821v-0.82zM9.026 18.872h0.82v0.82h-0.82v-0.82zM9.846 18.872h0.82v0.82h-0.82v-0.82zM10.667 18.872h0.821v0.82h-0.82v-0.82zM13.949 18.872h0.821v0.82h-0.82v-0.82zM14.769 18.872h0.82v0.82h-0.82v-0.82zM15.59 18.872h0.821v0.82h-0.82v-0.82zM16.41 18.872h0.82v0.82h-0.82v-0.82zM17.231 18.872h0.82v0.82h-0.82v-0.82zM18.051 18.872h0.82v0.82h-0.82v-0.82zM18.872 18.872h0.82v0.82h-0.82v-0.82zM21.333 18.872h0.82v0.82h-0.82v-0.82zM26.256 18.872h0.82v0.82h-0.82v-0.82zM27.077 18.872h0.82v0.82h-0.82v-0.82zM30.359 18.872h0.82v0.82h-0.82v-0.82zM1.641 19.692h0.821v0.82h-0.821v-0.82zM2.462 19.692h0.821v0.82h-0.821v-0.82zM3.282 19.692h0.82v0.82h-0.821v-0.82zM4.923 19.692h0.821v0.82h-0.821v-0.82zM6.564 19.692h0.821v0.82h-0.821v-0.82zM10.667 19.692h0.821v0.82h-0.82v-0.82zM11.487 19.692h0.821v0.82h-0.82v-0.82zM12.308 19.692h0.82v0.82h-0.82v-0.82zM13.128 19.692h0.821v0.82h-0.82v-0.82zM16.41 19.692h0.82v0.82h-0.82v-0.82zM18.051 19.692h0.82v0.82h-0.82v-0.82zM18.872 19.692h0.82v0.82h-0.82v-0.82zM20.513 19.692h0.82v0.82h-0.82v-0.82zM21.333 19.692h0.82v0.82h-0.82v-0.82zM22.154 19.692h0.82v0.82h-0.82v-0.82zM24.615 19.692h0.82v0.82h-0.82v-0.82zM27.077 19.692h0.82v0.82h-0.82v-0.82zM0.821 20.513h0.821v0.82h-0.821v-0.82zM2.462 20.513h0.821v0.82h-0.821v-0.82zM3.282 20.513h0.82v0.82h-0.821v-0.82zM5.744 20.513h0.821v0.82h-0.821v-0.82zM6.564 20.513h0.821v0.82h-0.821v-0.82zM9.846 20.513h0.82v0.82h-0.82v-0.82zM11.487 20.513h0.821v0.82h-0.82v-0.82zM13.949 20.513h0.821v0.82h-0.82v-0.82zM14.769 20.513h0.82v0.82h-0.82v-0.82zM15.59 20.513h0.821v0.82h-0.82v-0.82zM17.231 20.513h0.82v0.82h-0.82v-0.82zM18.051 20.513h0.82v0.82h-0.82v-0.82zM19.692 20.513h0.82v0.82h-0.82v-0.82zM21.333 20.513h0.82v0.82h-0.82v-0.82zM22.154 20.513h0.82v0.82h-0.82v-0.82zM22.974 20.513h0.82v0.82h-0.82v-0.82zM25.436 20.513h0.82v0.82h-0.82v-0.82zM26.256 20.513h0.82v0.82h-0.82v-0.82zM30.359 20.513h0.82v0.82h-0.82v-0.82zM4.103 21.333h0.821v0.82h-0.821v-0.82zM4.923 21.333h0.821v0.82h-0.821v-0.82zM6.564 21.333h0.821v0.82h-0.821v-0.82zM11.487 21.333h0.821v0.82h-0.82v-0.82zM18.051 21.333h0.82v0.82h-0.82v-0.82zM18.872 21.333h0.82v0.82h-0.82v-0.82zM20.513 21.333h0.82v0.82h-0.82v-0.82zM22.154 21.333h0.82v0.82h-0.82v-0.82zM23.795 21.333h0.82v0.82h-0.82v-0.82zM25.436 21.333h0.82v0.82h-0.82v-0.82zM27.897 21.333h0.82v0.82h-0.82v-0.82zM29.538 21.333h0.82v0.82h-0.82v-0.82zM30.359 21.333h0.82v0.82h-0.82v-0.82zM0.821 22.154h0.821v0.82h-0.821v-0.82zM4.103 22.154h0.821v0.82h-0.821v-0.82zM5.744 22.154h0.821v0.82h-0.821v-0.82zM6.564 22.154h0.821v0.82h-0.821v-0.82zM7.385 22.154h0.82v0.82h-0.821v-0.82zM8.205 22.154h0.821v0.82h-0.82v-0.82zM9.846 22.154h0.82v0.82h-0.82v-0.82zM10.667 22.154h0.821v0.82h-0.82v-0.82zM12.308 22.154h0.82v0.82h-0.82v-0.82zM13.128 22.154h0.821v0.82h-0.82v-0.82zM15.59 22.154h0.821v0.82h-0.82v-0.82zM18.872 22.154h0.82v0.82h-0.82v-0.82zM19.692 22.154h0.82v0.82h-0.82v-0.82zM21.333 22.154h0.82v0.82h-0.82v-0.82zM22.154 22.154h0.82v0.82h-0.82v-0.82zM23.795 22.154h0.82v0.82h-0.82v-0.82zM24.615 22.154h0.82v0.82h-0.82v-0.82zM25.436 22.154h0.82v0.82h-0.82v-0.82zM26.256 22.154h0.82v0.82h-0.82v-0.82zM28.718 22.154h0.82v0.82h-0.82v-0.82zM30.359 22.154h0.82v0.82h-0.82v-0.82zM1.641 22.974h0.821v0.82h-0.821v-0.82zM2.462 22.974h0.821v0.82h-0.821v-0.82zM3.282 22.974h0.82v0.82h-0.821v-0.82zM8.205 22.974h0.821v0.82h-0.82v-0.82zM9.026 22.974h0.82v0.82h-0.82v-0.82zM12.308 22.974h0.82v0.82h-0.82v-0.82zM14.769 22.974h0.82v0.82h-0.82v-0.82zM17.231 22.974h0.82v0.82h-0.82v-0.82zM18.051 22.974h0.82v0.82h-0.82v-0.82zM20.513 22.974h0.82v0.82h-0.82v-0.82zM21.333 22.974h0.82v0.82h-0.82v-0.82zM22.154 22.974h0.82v0.82h-0.82v-0.82zM22.974 22.974h0.82v0.82h-0.82v-0.82zM25.436 22.974h0.82v0.82h-0.82v-0.82zM27.897 22.974h0.82v0.82h-0.82v-0.82zM29.538 22.974h0.82v0.82h-0.82v-0.82zM30.359 22.974h0.82v0.82h-0.82v-0.82zM0.821 23.795h0.821v0.82h-0.821v-0.82zM1.641 23.795h0.821v0.82h-0.821v-0.82zM2.462 23.795h0.821v0.82h-0.821v-0.82zM4.103 23.795h0.821v0.82h-0.821v-0.82zM4.923 23.795h0.821v0.82h-0.821v-0.82zM5.744 23.795h0.821v0.82h-0.821v-0.82zM7.385 23.795h0.82v0.82h-0.821v-0.82zM10.667 23.795h0.821v0.82h-0.82v-0.82zM13.949 23.795h0.821v0.82h-0.82v-0.82zM14.769 23.795h0.82v0.82h-0.82v-0.82zM15.59 23.795h0.821v0.82h-0.82v-0.82zM16.41 23.795h0.82v0.82h-0.82v-0.82zM18.051 23.795h0.82v0.82h-0.82v-0.82zM19.692 23.795h0.82v0.82h-0.82v-0.82zM22.974 23.795h0.82v0.82h-0.82v-0.82zM23.795 23.795h0.82v0.82h-0.82v-0.82zM24.615 23.795h0.82v0.82h-0.82v-0.82zM25.436 23.795h0.82v0.82h-0.82v-0.82zM26.256 23.795h0.82v0.82h-0.82v-0.82zM27.077 23.795h0.82v0.82h-0.82v-0.82zM27.897 23.795h0.82v0.82h-0.82v-0.82zM28.718 23.795h0.82v0.82h-0.82v-0.82zM29.538 23.795h0.82v0.82h-0.82v-0.82zM30.359 23.795h0.82v0.82h-0.82v-0.82zM7.385 24.615h0.82v0.82h-0.821v-0.82zM8.205 24.615h0.821v0.82h-0.82v-0.82zM9.026 24.615h0.82v0.82h-0.82v-0.82zM10.667 24.615h0.821v0.82h-0.82v-0.82zM11.487 24.615h0.821v0.82h-0.82v-0.82zM12.308 24.615h0.82v0.82h-0.82v-0.82zM14.769 24.615h0.82v0.82h-0.82v-0.82zM16.41 24.615h0.82v0.82h-0.82v-0.82zM17.231 24.615h0.82v0.82h-0.82v-0.82zM18.051 24.615h0.82v0.82h-0.82v-0.82zM18.872 24.615h0.82v0.82h-0.82v-0.82zM19.692 24.615h0.82v0.82h-0.82v-0.82zM20.513 24.615h0.82v0.82h-0.82v-0.82zM23.795 24.615h0.82v0.82h-0.82v-0.82zM27.077 24.615h0.82v0.82h-0.82v-0.82zM30.359 24.615h0.82v0.82h-0.82v-0.82zM0.821 25.436h0.821v0.82h-0.821v-0.82zM1.641 25.436h0.821v0.82h-0.821v-0.82zM2.462 25.436h0.821v0.82h-0.821v-0.82zM3.282 25.436h0.82v0.82h-0.821v-0.82zM4.103 25.436h0.821v0.82h-0.821v-0.82zM4.923 25.436h0.821v0.82h-0.821v-0.82zM5.744 25.436h0.821v0.82h-0.821v-0.82zM7.385 25.436h0.82v0.82h-0.821v-0.82zM8.205 25.436h0.821v0.82h-0.82v-0.82zM9.846 25.436h0.82v0.82h-0.82v-0.82zM11.487 25.436h0.821v0.82h-0.82v-0.82zM13.949 25.436h0.821v0.82h-0.82v-0.82zM14.769 25.436h0.82v0.82h-0.82v-0.82zM15.59 25.436h0.821v0.82h-0.82v-0.82zM17.231 25.436h0.82v0.82h-0.82v-0.82zM18.872 25.436h0.82v0.82h-0.82v-0.82zM22.974 25.436h0.82v0.82h-0.82v-0.82zM23.795 25.436h0.82v0.82h-0.82v-0.82zM25.436 25.436h0.82v0.82h-0.82v-0.82zM27.077 25.436h0.82v0.82h-0.82v-0.82zM28.718 25.436h0.82v0.82h-0.82v-0.82zM29.538 25.436h0.82v0.82h-0.82v-0.82zM30.359 25.436h0.82v0.82h-0.82v-0.82zM0.821 26.256h0.821v0.82h-0.821v-0.82zM5.744 26.256h0.821v0.82h-0.821v-0.82zM7.385 26.256h0.82v0.82h-0.821v-0.82zM8.205 26.256h0.821v0.82h-0.82v-0.82zM10.667 26.256h0.821v0.82h-0.82v-0.82zM13.128 26.256h0.821v0.82h-0.82v-0.82zM14.769 26.256h0.82v0.82h-0.82v-0.82zM17.231 26.256h0.82v0.82h-0.82v-0.82zM18.051 26.256h0.82v0.82h-0.82v-0.82zM20.513 26.256h0.82v0.82h-0.82v-0.82zM22.154 26.256h0.82v0.82h-0.82v-0.82zM23.795 26.256h0.82v0.82h-0.82v-0.82zM27.077 26.256h0.82v0.82h-0.82v-0.82zM28.718 26.256h0.82v0.82h-0.82v-0.82zM0.821 27.077h0.821v0.82h-0.821v-0.82zM2.462 27.077h0.821v0.82h-0.821v-0.82zM3.282 27.077h0.82v0.82h-0.821v-0.82zM4.103 27.077h0.821v0.82h-0.821v-0.82zM5.744 27.077h0.821v0.82h-0.821v-0.82zM8.205 27.077h0.821v0.82h-0.82v-0.82zM11.487 27.077h0.821v0.82h-0.82v-0.82zM12.308 27.077h0.82v0.82h-0.82v-0.82zM13.128 27.077h0.821v0.82h-0.82v-0.82zM14.769 27.077h0.82v0.82h-0.82v-0.82zM15.59 27.077h0.821v0.82h-0.82v-0.82zM16.41 27.077h0.82v0.82h-0.82v-0.82zM18.872 27.077h0.82v0.82h-0.82v-0.82zM19.692 27.077h0.82v0.82h-0.82v-0.82zM20.513 27.077h0.82v0.82h-0.82v-0.82zM21.333 27.077h0.82v0.82h-0.82v-0.82zM23.795 27.077h0.82v0.82h-0.82v-0.82zM24.615 27.077h0.82v0.82h-0.82v-0.82zM25.436 27.077h0.82v0.82h-0.82v-0.82zM26.256 27.077h0.82v0.82h-0.82v-0.82zM27.077 27.077h0.82v0.82h-0.82v-0.82zM27.897 27.077h0.82v0.82h-0.82v-0.82zM29.538 27.077h0.82v0.82h-0.82v-0.82zM30.359 27.077h0.82v0.82h-0.82v-0.82zM0.821 27.897h0.821v0.82h-0.821v-0.82zM2.462 27.897h0.821v0.82h-0.821v-0.82zM3.282 27.897h0.82v0.82h-0.821v-0.82zM4.103 27.897h0.821v0.82h-0.821v-0.82zM5.744 27.897h0.821v0.82h-0.821v-0.82zM7.385 27.897h0.82v0.82h-0.821v-0.82zM10.667 27.897h0.821v0.82h-0.82v-0.82zM11.487 27.897h0.821v0.82h-0.82v-0.82zM16.41 27.897h0.82v0.82h-0.82v-0.82zM17.231 27.897h0.82v0.82h-0.82v-0.82zM18.051 27.897h0.82v0.82h-0.82v-0.82zM18.872 27.897h0.82v0.82h-0.82v-0.82zM19.692 27.897h0.82v0.82h-0.82v-0.82zM21.333 27.897h0.82v0.82h-0.82v-0.82zM22.974 27.897h0.82v0.82h-0.82v-0.82zM24.615 27.897h0.82v0.82h-0.82v-0.82zM26.256 27.897h0.82v0.82h-0.82v-0.82zM27.077 27.897h0.82v0.82h-0.82v-0.82zM27.897 27.897h0.82v0.82h-0.82v-0.82zM30.359 27.897h0.82v0.82h-0.82v-0.82zM0.821 28.718h0.821v0.82h-0.821v-0.82zM2.462 28.718h0.821v0.82h-0.821v-0.82zM3.282 28.718h0.82v0.82h-0.821v-0.82zM4.103 28.718h0.821v0.82h-0.821v-0.82zM5.744 28.718h0.821v0.82h-0.821v-0.82zM10.667 28.718h0.821v0.82h-0.82v-0.82zM13.128 28.718h0.821v0.82h-0.82v-0.82zM17.231 28.718h0.82v0.82h-0.82v-0.82zM21.333 28.718h0.82v0.82h-0.82v-0.82zM23.795 28.718h0.82v0.82h-0.82v-0.82zM24.615 28.718h0.82v0.82h-0.82v-0.82zM26.256 28.718h0.82v0.82h-0.82v-0.82zM27.077 28.718h0.82v0.82h-0.82v-0.82zM28.718 28.718h0.82v0.82h-0.82v-0.82zM30.359 28.718h0.82v0.82h-0.82v-0.82zM0.821 29.538h0.821v0.82h-0.821v-0.82zM5.744 29.538h0.821v0.82h-0.821v-0.82zM7.385 29.538h0.82v0.82h-0.821v-0.82zM8.205 29.538h0.821v0.82h-0.82v-0.82zM13.128 29.538h0.821v0.82h-0.82v-0.82zM13.949 29.538h0.821v0.82h-0.82v-0.82zM15.59 29.538h0.821v0.82h-0.82v-0.82zM18.051 29.538h0.82v0.82h-0.82v-0.82zM21.333 29.538h0.82v0.82h-0.82v-0.82zM22.154 29.538h0.82v0.82h-0.82v-0.82zM22.974 29.538h0.82v0.82h-0.82v-0.82zM23.795 29.538h0.82v0.82h-0.82v-0.82zM25.436 29.538h0.82v0.82h-0.82v-0.82zM27.077 29.538h0.82v0.82h-0.82v-0.82zM0.821 30.359h0.821v0.82h-0.821v-0.82zM1.641 30.359h0.821v0.82h-0.821v-0.82zM2.462 30.359h0.821v0.82h-0.821v-0.82zM3.282 30.359h0.82v0.82h-0.821v-0.82zM4.103 30.359h0.821v0.82h-0.821v-0.82zM4.923 30.359h0.821v0.82h-0.821v-0.82zM5.744 30.359h0.821v0.82h-0.821v-0.82zM9.846 30.359h0.82v0.82h-0.82v-0.82zM10.667 30.359h0.821v0.82h-0.82v-0.82zM12.308 30.359h0.82v0.82h-0.82v-0.82zM13.128 30.359h0.821v0.82h-0.82v-0.82zM13.949 30.359h0.821v0.82h-0.82v-0.82zM14.769 30.359h0.82v0.82h-0.82v-0.82zM15.59 30.359h0.821v0.82h-0.82v-0.82zM16.41 30.359h0.82v0.82h-0.82v-0.82zM18.051 30.359h0.82v0.82h-0.82v-0.82zM18.872 30.359h0.82v0.82h-0.82v-0.82zM21.333 30.359h0.82v0.82h-0.82v-0.82zM22.154 30.359h0.82v0.82h-0.82v-0.82zM23.795 30.359h0.82v0.82h-0.82v-0.82zM24.615 30.359h0.82v0.82h-0.82v-0.82zM26.256 30.359h0.82v0.82h-0.82v-0.82zM27.077 30.359h0.82v0.82h-0.82v-0.82zM29.538 30.359h0.82v0.82h-0.82v-0.82zM30.359 30.359h0.82v0.82h-0.82v-0.82z"></path>
</symbol>
<symbol id="icon-qr-phone" viewBox="0 0 32 32">
<path d="M1.185 1.185h1.185v1.185h-1.185v-1.185zM2.37 1.185h1.185v1.185h-1.185v-1.185zM3.556 1.185h1.185v1.185h-1.185v-1.185zM4.741 1.185h1.185v1.185h-1.185v-1.185zM5.926 1.185h1.185v1.185h-1.185v-1.185zM7.111 1.185h1.185v1.185h-1.185v-1.185zM8.296 1.185h1.185v1.185h-1.185v-1.185zM13.037 1.185h1.185v1.185h-1.185v-1.185zM14.222 1.185h1.185v1.185h-1.185v-1.185zM15.407 1.185h1.185v1.185h-1.185v-1.185zM17.778 1.185h1.185v1.185h-1.185v-1.185zM18.963 1.185h1.185v1.185h-1.185v-1.185zM20.148 1.185h1.185v1.185h-1.185v-1.185zM22.519 1.185h1.185v1.185h-1.185v-1.185zM23.704 1.185h1.185v1.185h-1.185v-1.185zM24.889 1.185h1.185v1.185h-1.185v-1.185zM26.074 1.185h1.185v1.185h-1.185v-1.185zM27.259 1.185h1.185v1.185h-1.185v-1.185zM28.444 1.185h1.185v1.185h-1.185v-1.185zM29.63 1.185h1.185v1.185h-1.185v-1.185zM1.185 2.37h1.185v1.185h-1.185v-1.185zM8.296 2.37h1.185v1.185h-1.185v-1.185zM11.852 2.37h1.185v1.185h-1.185v-1.185zM13.037 2.37h1.185v1.185h-1.185v-1.185zM14.222 2.37h1.185v1.185h-1.185v-1.185zM15.407 2.37h1.185v1.185h-1.185v-1.185zM16.593 2.37h1.185v1.185h-1.185v-1.185zM17.778 2.37h1.185v1.185h-1.185v-1.185zM20.148 2.37h1.185v1.185h-1.185v-1.185zM22.519 2.37h1.185v1.185h-1.185v-1.185zM29.63 2.37h1.185v1.185h-1.185v-1.185zM1.185 3.556h1.185v1.185h-1.185v-1.185zM3.556 3.556h1.185v1.185h-1.185v-1.185zM4.741 3.556h1.185v1.185h-1.185v-1.185zM5.926 3.556h1.185v1.185h-1.185v-1.185zM8.296 3.556h1.185v1.185h-1.185v-1.185zM13.037 3.556h1.185v1.185h-1.185v-1.185zM14.222 3.556h1.185v1.185h-1.185v-1.185zM17.778 3.556h1.185v1.185h-1.185v-1.185zM18.963 3.556h1.185v1.185h-1.185v-1.185zM20.148 3.556h1.185v1.185h-1.185v-1.185zM22.519 3.556h1.185v1.185h-1.185v-1.185zM24.889 3.556h1.185v1.185h-1.185v-1.185zM26.074 3.556h1.185v1.185h-1.185v-1.185zM27.259 3.556h1.185v1.185h-1.185v-1.185zM29.63 3.556h1.185v1.185h-1.185v-1.185zM1.185 4.741h1.185v1.185h-1.185v-1.185zM3.556 4.741h1.185v1.185h-1.185v-1.185zM4.741 4.741h1.185v1.185h-1.185v-1.185zM5.926 4.741h1.185v1.185h-1.185v-1.185zM8.296 4.741h1.185v1.185h-1.185v-1.185zM10.667 4.741h1.185v1.185h-1.185v-1.185zM11.852 4.741h1.185v1.185h-1.185v-1.185zM15.407 4.741h1.185v1.185h-1.185v-1.185zM17.778 4.741h1.185v1.185h-1.185v-1.185zM20.148 4.741h1.185v1.185h-1.185v-1.185zM22.519 4.741h1.185v1.185h-1.185v-1.185zM24.889 4.741h1.185v1.185h-1.185v-1.185zM26.074 4.741h1.185v1.185h-1.185v-1.185zM27.259 4.741h1.185v1.185h-1.185v-1.185zM29.63 4.741h1.185v1.185h-1.185v-1.185zM1.185 5.926h1.185v1.185h-1.185v-1.185zM3.556 5.926h1.185v1.185h-1.185v-1.185zM4.741 5.926h1.185v1.185h-1.185v-1.185zM5.926 5.926h1.185v1.185h-1.185v-1.185zM8.296 5.926h1.185v1.185h-1.185v-1.185zM11.852 5.926h1.185v1.185h-1.185v-1.185zM14.222 5.926h1.185v1.185h-1.185v-1.185zM15.407 5.926h1.185v1.185h-1.185v-1.185zM16.593 5.926h1.185v1.185h-1.185v-1.185zM17.778 5.926h1.185v1.185h-1.185v-1.185zM20.148 5.926h1.185v1.185h-1.185v-1.185zM22.519 5.926h1.185v1.185h-1.185v-1.185zM24.889 5.926h1.185v1.185h-1.185v-1.185zM26.074 5.926h1.185v1.185h-1.185v-1.185zM27.259 5.926h1.185v1.185h-1.185v-1.185zM29.63 5.926h1.185v1.185h-1.185v-1.185zM1.185 7.111h1.185v1.185h-1.185v-1.185zM8.296 7.111h1.185v1.185h-1.185v-1.185zM10.667 7.111h1.185v1.185h-1.185v-1.185zM11.852 7.111h1.185v1.185h-1.185v-1.185zM13.037 7.111h1.185v1.185h-1.185v-1.185zM22.519 7.111h1.185v1.185h-1.185v-1.185zM29.63 7.111h1.185v1.185h-1.185v-1.185zM1.185 8.296h1.185v1.185h-1.185v-1.185zM2.37 8.296h1.185v1.185h-1.185v-1.185zM3.556 8.296h1.185v1.185h-1.185v-1.185zM4.741 8.296h1.185v1.185h-1.185v-1.185zM5.926 8.296h1.185v1.185h-1.185v-1.185zM7.111 8.296h1.185v1.185h-1.185v-1.185zM8.296 8.296h1.185v1.185h-1.185v-1.185zM10.667 8.296h1.185v1.185h-1.185v-1.185zM13.037 8.296h1.185v1.185h-1.185v-1.185zM15.407 8.296h1.185v1.185h-1.185v-1.185zM17.778 8.296h1.185v1.185h-1.185v-1.185zM20.148 8.296h1.185v1.185h-1.185v-1.185zM22.519 8.296h1.185v1.185h-1.185v-1.185zM23.704 8.296h1.185v1.185h-1.185v-1.185zM24.889 8.296h1.185v1.185h-1.185v-1.185zM26.074 8.296h1.185v1.185h-1.185v-1.185zM27.259 8.296h1.185v1.185h-1.185v-1.185zM28.444 8.296h1.185v1.185h-1.185v-1.185zM29.63 8.296h1.185v1.185h-1.185v-1.185zM10.667 9.481h1.185v1.185h-1.185v-1.185zM11.852 9.481h1.185v1.185h-1.185v-1.185zM14.222 9.481h1.185v1.185h-1.185v-1.185zM17.778 9.481h1.185v1.185h-1.185v-1.185zM20.148 9.481h1.185v1.185h-1.185v-1.185zM2.37 10.667h1.185v1.185h-1.185v-1.185zM3.556 10.667h1.185v1.185h-1.185v-1.185zM8.296 10.667h1.185v1.185h-1.185v-1.185zM11.852 10.667h1.185v1.185h-1.185v-1.185zM13.037 10.667h1.185v1.185h-1.185v-1.185zM14.222 10.667h1.185v1.185h-1.185v-1.185zM15.407 10.667h1.185v1.185h-1.185v-1.185zM16.593 10.667h1.185v1.185h-1.185v-1.185zM17.778 10.667h1.185v1.185h-1.185v-1.185zM18.963 10.667h1.185v1.185h-1.185v-1.185zM22.519 10.667h1.185v1.185h-1.185v-1.185zM23.704 10.667h1.185v1.185h-1.185v-1.185zM26.074 10.667h1.185v1.185h-1.185v-1.185zM2.37 11.852h1.185v1.185h-1.185v-1.185zM4.741 11.852h1.185v1.185h-1.185v-1.185zM5.926 11.852h1.185v1.185h-1.185v-1.185zM7.111 11.852h1.185v1.185h-1.185v-1.185zM16.593 11.852h1.185v1.185h-1.185v-1.185zM17.778 11.852h1.185v1.185h-1.185v-1.185zM18.963 11.852h1.185v1.185h-1.185v-1.185zM21.333 11.852h1.185v1.185h-1.185v-1.185zM22.519 11.852h1.185v1.185h-1.185v-1.185zM26.074 11.852h1.185v1.185h-1.185v-1.185zM27.259 11.852h1.185v1.185h-1.185v-1.185zM29.63 11.852h1.185v1.185h-1.185v-1.185zM1.185 13.037h1.185v1.185h-1.185v-1.185zM2.37 13.037h1.185v1.185h-1.185v-1.185zM4.741 13.037h1.185v1.185h-1.185v-1.185zM5.926 13.037h1.185v1.185h-1.185v-1.185zM8.296 13.037h1.185v1.185h-1.185v-1.185zM9.481 13.037h1.185v1.185h-1.185v-1.185zM10.667 13.037h1.185v1.185h-1.185v-1.185zM11.852 13.037h1.185v1.185h-1.185v-1.185zM15.407 13.037h1.185v1.185h-1.185v-1.185zM18.963 13.037h1.185v1.185h-1.185v-1.185zM20.148 13.037h1.185v1.185h-1.185v-1.185zM22.519 13.037h1.185v1.185h-1.185v-1.185zM23.704 13.037h1.185v1.185h-1.185v-1.185zM26.074 13.037h1.185v1.185h-1.185v-1.185zM27.259 13.037h1.185v1.185h-1.185v-1.185zM29.63 13.037h1.185v1.185h-1.185v-1.185zM3.556 14.222h1.185v1.185h-1.185v-1.185zM9.481 14.222h1.185v1.185h-1.185v-1.185zM10.667 14.222h1.185v1.185h-1.185v-1.185zM14.222 14.222h1.185v1.185h-1.185v-1.185zM16.593 14.222h1.185v1.185h-1.185v-1.185zM22.519 14.222h1.185v1.185h-1.185v-1.185zM23.704 14.222h1.185v1.185h-1.185v-1.185zM28.444 14.222h1.185v1.185h-1.185v-1.185zM5.926 15.407h1.185v1.185h-1.185v-1.185zM8.296 15.407h1.185v1.185h-1.185v-1.185zM11.852 15.407h1.185v1.185h-1.185v-1.185zM15.407 15.407h1.185v1.185h-1.185v-1.185zM16.593 15.407h1.185v1.185h-1.185v-1.185zM21.333 15.407h1.185v1.185h-1.185v-1.185zM22.519 15.407h1.185v1.185h-1.185v-1.185zM29.63 15.407h1.185v1.185h-1.185v-1.185zM3.556 16.593h1.185v1.185h-1.185v-1.185zM5.926 16.593h1.185v1.185h-1.185v-1.185zM7.111 16.593h1.185v1.185h-1.185v-1.185zM9.481 16.593h1.185v1.185h-1.185v-1.185zM13.037 16.593h1.185v1.185h-1.185v-1.185zM14.222 16.593h1.185v1.185h-1.185v-1.185zM15.407 16.593h1.185v1.185h-1.185v-1.185zM18.963 16.593h1.185v1.185h-1.185v-1.185zM21.333 16.593h1.185v1.185h-1.185v-1.185zM22.519 16.593h1.185v1.185h-1.185v-1.185zM27.259 16.593h1.185v1.185h-1.185v-1.185zM29.63 16.593h1.185v1.185h-1.185v-1.185zM1.185 17.778h1.185v1.185h-1.185v-1.185zM2.37 17.778h1.185v1.185h-1.185v-1.185zM3.556 17.778h1.185v1.185h-1.185v-1.185zM4.741 17.778h1.185v1.185h-1.185v-1.185zM5.926 17.778h1.185v1.185h-1.185v-1.185zM8.296 17.778h1.185v1.185h-1.185v-1.185zM9.481 17.778h1.185v1.185h-1.185v-1.185zM10.667 17.778h1.185v1.185h-1.185v-1.185zM14.222 17.778h1.185v1.185h-1.185v-1.185zM15.407 17.778h1.185v1.185h-1.185v-1.185zM17.778 17.778h1.185v1.185h-1.185v-1.185zM18.963 17.778h1.185v1.185h-1.185v-1.185zM21.333 17.778h1.185v1.185h-1.185v-1.185zM23.704 17.778h1.185v1.185h-1.185v-1.185zM24.889 17.778h1.185v1.185h-1.185v-1.185zM26.074 17.778h1.185v1.185h-1.185v-1.185zM29.63 17.778h1.185v1.185h-1.185v-1.185zM3.556 18.963h1.185v1.185h-1.185v-1.185zM4.741 18.963h1.185v1.185h-1.185v-1.185zM5.926 18.963h1.185v1.185h-1.185v-1.185zM9.481 18.963h1.185v1.185h-1.185v-1.185zM10.667 18.963h1.185v1.185h-1.185v-1.185zM11.852 18.963h1.185v1.185h-1.185v-1.185zM15.407 18.963h1.185v1.185h-1.185v-1.185zM16.593 18.963h1.185v1.185h-1.185v-1.185zM17.778 18.963h1.185v1.185h-1.185v-1.185zM18.963 18.963h1.185v1.185h-1.185v-1.185zM21.333 18.963h1.185v1.185h-1.185v-1.185zM1.185 20.148h1.185v1.185h-1.185v-1.185zM2.37 20.148h1.185v1.185h-1.185v-1.185zM3.556 20.148h1.185v1.185h-1.185v-1.185zM5.926 20.148h1.185v1.185h-1.185v-1.185zM8.296 20.148h1.185v1.185h-1.185v-1.185zM10.667 20.148h1.185v1.185h-1.185v-1.185zM11.852 20.148h1.185v1.185h-1.185v-1.185zM14.222 20.148h1.185v1.185h-1.185v-1.185zM15.407 20.148h1.185v1.185h-1.185v-1.185zM17.778 20.148h1.185v1.185h-1.185v-1.185zM18.963 20.148h1.185v1.185h-1.185v-1.185zM20.148 20.148h1.185v1.185h-1.185v-1.185zM21.333 20.148h1.185v1.185h-1.185v-1.185zM22.519 20.148h1.185v1.185h-1.185v-1.185zM23.704 20.148h1.185v1.185h-1.185v-1.185zM24.889 20.148h1.185v1.185h-1.185v-1.185zM26.074 20.148h1.185v1.185h-1.185v-1.185zM29.63 20.148h1.185v1.185h-1.185v-1.185zM10.667 21.333h1.185v1.185h-1.185v-1.185zM11.852 21.333h1.185v1.185h-1.185v-1.185zM14.222 21.333h1.185v1.185h-1.185v-1.185zM15.407 21.333h1.185v1.185h-1.185v-1.185zM17.778 21.333h1.185v1.185h-1.185v-1.185zM18.963 21.333h1.185v1.185h-1.185v-1.185zM20.148 21.333h1.185v1.185h-1.185v-1.185zM24.889 21.333h1.185v1.185h-1.185v-1.185zM27.259 21.333h1.185v1.185h-1.185v-1.185zM28.444 21.333h1.185v1.185h-1.185v-1.185zM29.63 21.333h1.185v1.185h-1.185v-1.185zM1.185 22.519h1.185v1.185h-1.185v-1.185zM2.37 22.519h1.185v1.185h-1.185v-1.185zM3.556 22.519h1.185v1.185h-1.185v-1.185zM4.741 22.519h1.185v1.185h-1.185v-1.185zM5.926 22.519h1.185v1.185h-1.185v-1.185zM7.111 22.519h1.185v1.185h-1.185v-1.185zM8.296 22.519h1.185v1.185h-1.185v-1.185zM11.852 22.519h1.185v1.185h-1.185v-1.185zM13.037 22.519h1.185v1.185h-1.185v-1.185zM14.222 22.519h1.185v1.185h-1.185v-1.185zM16.593 22.519h1.185v1.185h-1.185v-1.185zM17.778 22.519h1.185v1.185h-1.185v-1.185zM20.148 22.519h1.185v1.185h-1.185v-1.185zM22.519 22.519h1.185v1.185h-1.185v-1.185zM24.889 22.519h1.185v1.185h-1.185v-1.185zM29.63 22.519h1.185v1.185h-1.185v-1.185zM1.185 23.704h1.185v1.185h-1.185v-1.185zM8.296 23.704h1.185v1.185h-1.185v-1.185zM11.852 23.704h1.185v1.185h-1.185v-1.185zM14.222 23.704h1.185v1.185h-1.185v-1.185zM20.148 23.704h1.185v1.185h-1.185v-1.185zM24.889 23.704h1.185v1.185h-1.185v-1.185zM28.444 23.704h1.185v1.185h-1.185v-1.185zM1.185 24.889h1.185v1.185h-1.185v-1.185zM3.556 24.889h1.185v1.185h-1.185v-1.185zM4.741 24.889h1.185v1.185h-1.185v-1.185zM5.926 24.889h1.185v1.185h-1.185v-1.185zM8.296 24.889h1.185v1.185h-1.185v-1.185zM11.852 24.889h1.185v1.185h-1.185v-1.185zM15.407 24.889h1.185v1.185h-1.185v-1.185zM17.778 24.889h1.185v1.185h-1.185v-1.185zM18.963 24.889h1.185v1.185h-1.185v-1.185zM20.148 24.889h1.185v1.185h-1.185v-1.185zM21.333 24.889h1.185v1.185h-1.185v-1.185zM22.519 24.889h1.185v1.185h-1.185v-1.185zM23.704 24.889h1.185v1.185h-1.185v-1.185zM24.889 24.889h1.185v1.185h-1.185v-1.185zM28.444 24.889h1.185v1.185h-1.185v-1.185zM29.63 24.889h1.185v1.185h-1.185v-1.185zM1.185 26.074h1.185v1.185h-1.185v-1.185zM3.556 26.074h1.185v1.185h-1.185v-1.185zM4.741 26.074h1.185v1.185h-1.185v-1.185zM5.926 26.074h1.185v1.185h-1.185v-1.185zM8.296 26.074h1.185v1.185h-1.185v-1.185zM13.037 26.074h1.185v1.185h-1.185v-1.185zM15.407 26.074h1.185v1.185h-1.185v-1.185zM16.593 26.074h1.185v1.185h-1.185v-1.185zM18.963 26.074h1.185v1.185h-1.185v-1.185zM23.704 26.074h1.185v1.185h-1.185v-1.185zM24.889 26.074h1.185v1.185h-1.185v-1.185zM28.444 26.074h1.185v1.185h-1.185v-1.185zM1.185 27.259h1.185v1.185h-1.185v-1.185zM3.556 27.259h1.185v1.185h-1.185v-1.185zM4.741 27.259h1.185v1.185h-1.185v-1.185zM5.926 27.259h1.185v1.185h-1.185v-1.185zM8.296 27.259h1.185v1.185h-1.185v-1.185zM10.667 27.259h1.185v1.185h-1.185v-1.185zM11.852 27.259h1.185v1.185h-1.185v-1.185zM13.037 27.259h1.185v1.185h-1.185v-1.185zM15.407 27.259h1.185v1.185h-1.185v-1.185zM17.778 27.259h1.185v1.185h-1.185v-1.185zM18.963 27.259h1.185v1.185h-1.185v-1.185zM23.704 27.259h1.185v1.185h-1.185v-1.185zM24.889 27.259h1.185v1.185h-1.185v-1.185zM28.444 27.259h1.185v1.185h-1.185v-1.185zM29.63 27.259h1.185v1.185h-1.185v-1.185zM1.185 28.444h1.185v1.185h-1.185v-1.185zM8.296 28.444h1.185v1.185h-1.185v-1.185zM10.667 28.444h1.185v1.185h-1.185v-1.185zM15.407 28.444h1.185v1.185h-1.185v-1.185zM18.963 28.444h1.185v1.185h-1.185v-1.185zM20.148 28.444h1.185v1.185h-1.185v-1.185zM21.333 28.444h1.185v1.185h-1.185v-1.185zM1.185 29.63h1.185v1.185h-1.185v-1.185zM2.37 29.63h1.185v1.185h-1.185v-1.185zM3.556 29.63h1.185v1.185h-1.185v-1.185zM4.741 29.63h1.185v1.185h-1.185v-1.185zM5.926 29.63h1.185v1.185h-1.185v-1.185zM7.111 29.63h1.185v1.185h-1.185v-1.185zM8.296 29.63h1.185v1.185h-1.185v-1.185zM11.852 29.63h1.185v1.185h-1.185v-1.185zM17.778 29.63h1.185v1.185h-1.185v-1.185zM18.963 29.63h1.185v1.185h-1.185v-1.185zM20.148 29.63h1.185v1.185h-1.185v-1.185zM21.333 29.63h1.185v1.185h-1.185v-1.185zM22.519 29.63h1.185v1.185h-1.185v-1.185zM23.704 29.63h1.185v1.185h-1.185v-1.185zM29.63 29.63h1.185v1.185h-1.185v-1.185z"></path>
</symbol>
</defs>
</svg>
